<?xml version="1.0" encoding="iso-8859-1"?>
<!-- Generator: Adobe Illustrator 19.0.0, SVG Export Plug-In . SVG Version: 6.00 Build 0)  -->
<svg version="1.1" id="Capa_1" xmlns="http://www.w3.org/2000/svg" xmlns:xlink="http://www.w3.org/1999/xlink" x="0px" y="0px"
	 viewBox="0 0 512 512" style="enable-background:new 0 0 512 512;" xml:space="preserve">
<path style="fill:#FFC477;" d="M403.835,94.727v302.127c0,0.603-0.01,1.206-0.04,1.81c-0.945,20.691-18.026,37.189-38.969,37.189
	H145.532c-21.545,0-39.009-17.463-39.009-38.999V47.052c0-18.519,12.899-34.022,30.202-38.013c2.835-0.653,5.781-0.995,8.807-0.995
	h174.192c5.922,0,11.703,1.347,16.941,3.881c10.538,5.072,13.506,11.481,32.444,30.845c21.787,23.657,26.988,26.082,31.428,36.324
	C402.699,83.979,403.835,89.288,403.835,94.727z"/>
<path style="fill:#FFDAAA;" d="M403.835,94.727v302.127c0,0.603-0.01,1.206-0.04,1.81c-2.835,0.654-5.781,0.995-8.807,0.995H175.694
	c-21.545,0-39.009-17.463-39.009-38.999V10.858c0-0.613,0.01-1.217,0.04-1.82c2.835-0.653,5.781-0.995,8.807-0.995h174.192
	c5.922,0,11.703,1.347,16.941,3.881c4.303,2.071,8.234,4.946,11.562,8.506l20.882,22.34l23.908,25.014
	c3.187,3.328,5.721,7.158,7.52,11.311C402.699,83.979,403.835,89.288,403.835,94.727z"/>
<path style="fill:#4CBA68;" d="M503.91,230.021v219.314c0,12.195-3.961,23.476-10.677,32.604
	c-10.024,13.653-26.2,22.521-44.448,22.521H305.539c-30.443,0-55.125-24.682-55.125-55.125V230.021
	c0-22.752,13.794-42.286,33.469-50.701c6.646-2.845,13.965-4.424,21.656-4.424h143.247
	C479.238,174.896,503.91,199.578,503.91,230.021z"/>
<path style="fill:#7CCC92;" d="M503.91,230.021v219.314c0,12.195-3.961,23.476-10.677,32.604
	c-6.646,2.845-13.965,4.424-21.656,4.424H328.331c-30.443,0-55.125-24.682-55.125-55.125V211.924
	c0-12.195,3.961-23.476,10.677-32.604c6.646-2.845,13.965-4.424,21.656-4.424h143.247
	C479.238,174.896,503.91,199.578,503.91,230.021z"/>
<path style="fill:#2C733F;" d="M398.285,374.213v25.758c0,4.554-3.69,8.244-8.234,8.244h-25.768c-4.554,0-8.244-3.69-8.244-8.244
	v-25.758c0-4.554,3.69-8.244,8.244-8.244h25.768C394.595,365.969,398.285,369.658,398.285,374.213z"/>
<path style="fill:#1E81CE;" d="M466.028,224.853v27.598c0,9.813-7.953,17.775-17.775,17.775H306.072
	c-9.813,0-17.775-7.963-17.775-17.775v-27.598c0-9.813,7.963-17.775,17.775-17.775h142.181
	C458.075,207.078,466.028,215.041,466.028,224.853z"/>
<path style="fill:#3D9AE2;" d="M466.028,224.853v27.598c0,9.813-7.953,17.775-17.775,17.775H336.233
	c-9.813,0-17.775-7.963-17.775-17.775v-27.598c0-9.813,7.963-17.775,17.775-17.775h112.019
	C458.075,207.078,466.028,215.041,466.028,224.853z"/>
<g>
	<path style="fill:#2C733F;" d="M330.553,374.213v25.758c0,4.554-3.69,8.244-8.244,8.244h-25.768c-4.544,0-8.244-3.69-8.244-8.244
		v-25.758c0-4.554,3.7-8.244,8.244-8.244h25.768C326.863,365.969,330.553,369.658,330.553,374.213z"/>
	<path style="fill:#2C733F;" d="M398.285,306.852v25.758c0,4.554-3.69,8.244-8.234,8.244h-25.768c-4.554,0-8.244-3.69-8.244-8.244
		v-25.758c0-4.554,3.69-8.244,8.244-8.244h25.768C394.595,298.608,398.285,302.298,398.285,306.852z"/>
</g>
<path style="fill:#EE8700;" d="M466.842,306.852v25.758c0,4.554-3.69,8.244-8.244,8.244H432.84c-4.554,0-8.244-3.69-8.244-8.244
	v-25.758c0-4.554,3.69-8.244,8.244-8.244h25.758C463.152,298.608,466.842,302.298,466.842,306.852z"/>
<g>
	<path style="fill:#2C733F;" d="M330.553,306.852v25.758c0,4.554-3.69,8.244-8.244,8.244h-25.768c-4.544,0-8.244-3.69-8.244-8.244
		v-25.758c0-4.554,3.7-8.244,8.244-8.244h25.768C326.863,298.608,330.553,302.298,330.553,306.852z"/>
	<path style="fill:#2C733F;" d="M398.285,438.265v25.768c0,4.554-3.69,8.244-8.234,8.244h-25.768c-4.554,0-8.244-3.69-8.244-8.244
		v-25.768c0-4.544,3.69-8.234,8.244-8.234h25.768C394.595,430.031,398.285,433.721,398.285,438.265z"/>
	<path style="fill:#2C733F;" d="M330.553,438.265v25.768c0,4.554-3.69,8.244-8.244,8.244h-25.768c-4.544,0-8.244-3.69-8.244-8.244
		v-25.768c0-4.544,3.7-8.234,8.244-8.234h25.768C326.863,430.031,330.553,433.721,330.553,438.265z"/>
</g>
<path style="fill:#EE8700;" d="M466.842,378.214v79.998c0,7.772-6.294,14.065-14.055,14.065h-14.136
	c-7.762,0-14.055-6.294-14.055-14.065v-79.998c0-6.766,5.489-12.246,12.246-12.246h17.755
	C461.363,365.969,466.842,371.448,466.842,378.214z"/>
<g>
	<path style="fill:#317F46;" d="M398.285,374.213v7.661c0,4.554-3.69,8.244-8.234,8.244h-25.768c-4.554,0-8.244-3.69-8.244-8.244
		v-7.661c0-4.554,3.69-8.244,8.244-8.244h25.768C394.595,365.969,398.285,369.658,398.285,374.213z"/>
	<path style="fill:#317F46;" d="M330.553,374.213v7.661c0,4.554-3.69,8.244-8.244,8.244h-25.768c-4.544,0-8.244-3.69-8.244-8.244
		v-7.661c0-4.554,3.7-8.244,8.244-8.244h25.768C326.863,365.969,330.553,369.658,330.553,374.213z"/>
	<path style="fill:#317F46;" d="M398.285,306.852v7.661c0,4.554-3.69,8.244-8.234,8.244h-25.768c-4.554,0-8.244-3.69-8.244-8.244
		v-7.661c0-4.554,3.69-8.244,8.244-8.244h25.768C394.595,298.608,398.285,302.298,398.285,306.852z"/>
</g>
<path style="fill:#FF9811;" d="M466.842,306.852v7.661c0,4.554-3.69,8.244-8.244,8.244H432.84c-4.554,0-8.244-3.69-8.244-8.244
	v-7.661c0-4.554,3.69-8.244,8.244-8.244h25.758C463.152,298.608,466.842,302.298,466.842,306.852z"/>
<g>
	<path style="fill:#317F46;" d="M330.553,306.852v7.661c0,4.554-3.69,8.244-8.244,8.244h-25.768c-4.544,0-8.244-3.69-8.244-8.244
		v-7.661c0-4.554,3.7-8.244,8.244-8.244h25.768C326.863,298.608,330.553,302.298,330.553,306.852z"/>
	<path style="fill:#317F46;" d="M398.285,438.265v7.671c0,4.554-3.69,8.244-8.234,8.244h-25.768c-4.554,0-8.244-3.69-8.244-8.244
		v-7.671c0-4.544,3.69-8.234,8.244-8.234h25.768C394.595,430.031,398.285,433.721,398.285,438.265z"/>
	<path style="fill:#317F46;" d="M330.553,438.265v7.671c0,4.554-3.69,8.244-8.244,8.244h-25.768c-4.544,0-8.244-3.69-8.244-8.244
		v-7.671c0-4.544,3.7-8.234,8.244-8.234h25.768C326.863,430.031,330.553,433.721,330.553,438.265z"/>
</g>
<path style="fill:#FF9811;" d="M466.842,378.214v61.901c0,7.772-6.294,14.065-14.055,14.065h-14.136
	c-7.762,0-14.055-6.294-14.055-14.065v-61.901c0-6.766,5.489-12.246,12.246-12.246h17.755
	C461.363,365.969,466.842,371.448,466.842,378.214z"/>
<path style="fill:#FFB655;" d="M400.538,79.092h-48.881c-8.282,0-14.996-6.714-14.996-14.996V11.924
	c4.305,2.07,8.236,4.944,11.562,8.5l20.889,22.342l23.905,25.018C396.2,71.11,398.733,74.941,400.538,79.092z"/>
<path style="fill:#AA6100;" d="M224.686,480.753c0,5.258-2.152,10.024-5.61,13.492c-3.469,3.459-8.234,5.61-13.492,5.61H88.558
	c-10.506,0-19.102-8.596-19.102-19.102c0-5.258,2.152-10.024,5.61-13.492c3.469-3.458,8.234-5.61,13.492-5.61h117.026
	C216.09,461.651,224.686,470.247,224.686,480.753z"/>
<path style="fill:#CC7400;" d="M224.686,442.548c0,5.258-2.152,10.024-5.61,13.492c-3.469,3.458-8.234,5.61-13.492,5.61H88.558
	c-10.506,0-19.102-8.596-19.102-19.102c0-5.258,2.152-10.024,5.61-13.492c3.469-3.459,8.234-5.61,13.492-5.61h117.026
	C216.09,423.446,224.686,432.042,224.686,442.548z"/>
<path style="fill:#EE8700;" d="M224.686,404.344c0,5.258-2.152,10.024-5.61,13.492c-3.469,3.459-8.234,5.61-13.492,5.61H88.558
	c-10.506,0-19.102-8.596-19.102-19.102c0-5.258,2.152-10.024,5.61-13.492c3.469-3.458,8.234-5.61,13.492-5.61h117.026
	C216.09,385.242,224.686,393.838,224.686,404.344z"/>
<path style="fill:#FF9811;" d="M224.686,366.139c0,5.258-2.152,10.024-5.61,13.492c-3.469,3.458-8.234,5.61-13.492,5.61H88.558
	c-10.506,0-19.102-8.596-19.102-19.102c0-3.74,1.096-7.239,2.976-10.195c0.754-1.196,1.639-2.302,2.634-3.298
	c3.469-3.459,8.234-5.61,13.492-5.61h117.026C216.09,347.037,224.686,355.633,224.686,366.139z"/>
<path style="fill:#FFA733;" d="M205.58,347.038H88.558c-10.506,0-19.102-8.596-19.102-19.102l0,0
	c0-10.506,8.596-19.102,19.102-19.102H205.58c10.506,0,19.102,8.596,19.102,19.102l0,0
	C224.682,338.442,216.086,347.038,205.58,347.038z"/>
<path style="fill:#CC7400;" d="M157.482,437.195c-1.217-28.513-21.435-51.727-47.926-57.94c-5.39-1.263-11.039-1.825-16.848-1.58
	v-0.002H68.353c-55.219,2.394-80.957,71.171-38.672,108.697c11.65,10.357,27.192,16.383,43.995,15.662h19.03v-0.021
	c1.737,0.07,3.488,0.087,5.256,0.012c3.971-0.171,7.832-0.714,11.562-1.578c27.005-6.304,46.981-30.081,47.967-58.342v-0.07
	C157.553,440.432,157.553,438.823,157.482,437.195z"/>
<path style="fill:#EE8700;" d="M157.492,442.031v0.07c-0.985,28.261-20.962,52.039-47.967,58.342
	c-26.472-6.223-46.69-29.427-47.906-57.93c-0.01-0.141-0.02-0.271-0.02-0.412v-0.07c-1.056-30.161,19.555-56.14,47.957-62.776
	c26.492,6.213,46.71,29.427,47.926,57.94C157.553,438.823,157.553,440.432,157.492,442.031z"/>
<path d="M448.785,167.356h-36.908V94.727c0-12.437-4.946-24.029-13.04-32.504L374.99,37.269
	c-20.238-20.852-22.792-26.743-34.846-32.594C334.544,1.88,327.165,0,319.725,0H145.533c-25.949,0-47.052,21.113-47.052,47.052
	V300.79h-9.923c-14.97,0-27.145,12.175-27.145,27.145c0,7.45,3.016,14.196,7.882,19.102c-4.866,4.906-7.882,11.652-7.882,19.102
	c0,2.795,0.392,4.454,0.533,5.369C3.04,377.5-20.426,450.41,22.685,489.982c13.02,11.954,30.302,18.73,49.042,17.966
	c6.193,0,133.695-0.05,133.856-0.05c14.96,0,27.145-12.175,27.145-27.145c0-7.45-3.016-14.196-7.882-19.102
	c4.574-4.615,7.51-10.838,7.842-17.755h10.185v5.439c0,34.555,28.11,62.665,62.665,62.665h143.247
	c34.555,0,62.665-28.11,62.665-62.665V230.021C511.451,195.466,483.34,167.356,448.785,167.356z M344.708,28.442
	c31.589,33.389,38.707,40.919,40.044,42.337c0,0,0.01,0,0.02,0.02c0.01,0,0.01,0,0.01,0c0.01,0.02,0.03,0.04,0.04,0.05l0.01,0.01
	c0.02,0.03,0.04,0.05,0.06,0.06c0.01,0.01,0.02,0.02,0.03,0.04c0.01,0.01,0.02,0.01,0.02,0.02c0.01,0.01,0.02,0.01,0.03,0.03
	c0.02,0.01,0.03,0.03,0.04,0.04h-40.306L344.708,28.442L344.708,28.442z M88.558,316.876h117.026
	c6.093,0,11.059,4.967,11.059,11.059c0,6.103-4.967,11.059-11.059,11.059H88.558c-6.093,0-11.059-4.957-11.059-11.059
	C77.498,321.842,82.465,316.876,88.558,316.876z M88.558,355.08h117.026c6.093,0,11.059,4.967,11.059,11.059
	c0,6.103-4.967,11.059-11.059,11.059h-80.833c-3.288-1.508-6.696-2.735-10.185-3.68c-5.208-1.418-10.597-2.222-16.086-2.363
	c-1.578-0.04-3.157-0.03-4.735,0.04h-15.01c-0.794-1.518-1.237-3.237-1.237-5.057C77.498,360.047,82.465,355.08,88.558,355.08z
	 M216.643,404.344c0,6.103-4.967,11.059-11.059,11.059h-45.011c-3.056-8.134-7.661-15.624-13.653-22.118h58.664
	C211.676,393.285,216.643,398.251,216.643,404.344z M49.428,389.907c-4.896,4.645-9.25,10.164-12.668,16.247h-9.37
	C33.513,398.563,41.124,393.164,49.428,389.907z M18.834,421.234h11.713c-0.261,1.126-1.589,5.459-2.192,12.055H15.979
	C16.462,429.147,17.417,425.105,18.834,421.234z M20.131,461.098c-1.78-4.042-3.056-8.314-3.78-12.728h12.286
	c2.202,12.487,2.322,10.335,2.875,12.728H20.131z M30.165,476.178c4.936-0.01,7.802,0.02,8.475-0.02
	c3.006,4.745,6.625,9.139,10.818,13.09C42.169,486.383,35.685,482.01,30.165,476.178z M98.792,492.878
	c-29.427,1.267-54.341-21.525-55.587-51.023c-2.021-46.961,54.069-74.006,89.388-41.583
	C167.41,432.233,146.216,490.927,98.792,492.878z M205.584,491.812h-64.917c7.188-6.083,13.09-13.613,17.282-22.118h47.635
	c6.093,0,11.059,4.967,11.059,11.059C216.643,486.855,211.676,491.812,205.584,491.812z M216.553,443.896
	c-0.664,5.469-5.329,9.712-10.969,9.712h-42.085c1.458-6.977,1.87-14.498,0.975-22.118h41.11
	C212.36,431.489,217.417,437.552,216.553,443.896z M242.873,427.809h-14.518c-1.015-1.578-2.192-3.036-3.509-4.363
	c10.506-10.597,10.516-27.608,0-38.204c4.866-4.906,7.882-11.652,7.882-19.102c0-7.45-3.016-14.196-7.882-19.102
	c16.91-17.051,4.826-46.247-19.263-46.247h-91.017V47.052c0-17.071,13.894-30.966,30.966-30.966h183.09v63.007
	c0,4.444,3.599,8.043,8.043,8.043h58.171c1.679,6.515,0.643,4.363,0.955,80.219h-90.253c-34.555,0-62.665,28.11-62.665,62.665
	L242.873,427.809L242.873,427.809z M496.37,449.335c0,26.24-21.344,47.585-47.585,47.585H305.539
	c-26.23,0-47.585-21.344-47.585-47.585V230.021c0-26.24,21.354-47.585,47.585-47.585h143.247c26.24,0,47.585,21.344,47.585,47.585
	V449.335z"/>
<path d="M333.428,262.686h-27.356c-5.629,0-10.235-4.606-10.235-10.235v-27.598c0-5.629,4.606-10.235,10.235-10.235h142.181
	c5.65,0,10.235,4.595,10.235,10.235v27.598c0,5.64-4.585,10.235-10.235,10.235h-82.31c-4.164,0-7.54,3.376-7.54,7.54
	s3.376,7.54,7.54,7.54h82.31c13.965,0,25.315-11.361,25.315-25.315v-27.598c0-13.955-11.351-25.315-25.315-25.315H306.072
	c-13.981,0-25.315,11.334-25.315,25.315v27.598c0,13.981,11.334,25.315,25.315,25.315h27.356c4.164,0,7.54-3.376,7.54-7.54
	S337.592,262.686,333.428,262.686z"/>
<path d="M296.541,415.755h25.768c8.707,0,15.784-7.078,15.784-15.784v-25.758c0-8.707-7.078-15.784-15.784-15.784h-25.768
	c-8.697,0-15.784,7.078-15.784,15.784v25.758C280.756,408.677,287.844,415.755,296.541,415.755z M295.837,374.213
	c0-0.392,0.322-0.704,0.704-0.704h25.768c0.382,0,0.704,0.312,0.704,0.704v25.758c0,0.392-0.322,0.704-0.704,0.704h-25.768
	c-0.382,0-0.704-0.312-0.704-0.704V374.213z"/>
<path d="M458.598,291.068H432.84c-8.707,0-15.784,7.078-15.784,15.784v25.758c0,8.707,7.078,15.784,15.784,15.784h25.758
	c8.707,0,15.784-7.078,15.784-15.784v-25.758C474.382,298.146,467.304,291.068,458.598,291.068z M459.302,332.61
	c0,0.392-0.312,0.704-0.704,0.704H432.84c-0.382,0-0.704-0.312-0.704-0.704c0.312-25.486-0.654-26.462,0.704-26.462h25.758
	c0.392,0,0.704,0.312,0.704,0.704V332.61z"/>
<path d="M296.541,348.394h25.768c8.707,0,15.784-7.078,15.784-15.784v-25.758c0-8.707-7.078-15.784-15.784-15.784h-25.768
	c-8.697,0-15.784,7.078-15.784,15.784v25.758C280.756,341.317,287.844,348.394,296.541,348.394z M295.837,306.852
	c0-0.392,0.322-0.704,0.704-0.704h25.768c0.382,0,0.704,0.312,0.704,0.704v25.758c0,0.392-0.322,0.704-0.704,0.704h-25.768
	c-0.382,0-0.704-0.312-0.704-0.704V306.852z"/>
<path d="M334.122,427.809c-2.896-3.257-7.118-5.318-11.813-5.318h-25.768c-4.695,0-8.918,2.061-11.803,5.318
	c-5.479,6.143-3.619,12.839-3.981,16.086v20.138c0,8.707,7.088,15.784,15.784,15.784h25.768c8.707,0,15.784-7.078,15.784-15.784
	v-20.138C337.731,440.719,339.571,433.952,334.122,427.809z M322.309,464.737c-25.456-0.312-26.472,0.653-26.472-0.704
	c0-27.276-0.302-26.462,0.704-26.462h25.768c1.237,0,0.473,1.719,0.704,6.324C323.012,443.896,323.666,464.737,322.309,464.737z"/>
<path d="M454.596,358.428h-17.755c-10.908,0-19.786,8.878-19.786,19.786v79.998c0,11.914,9.692,21.606,21.596,21.606h14.136
	c11.914,0,21.596-9.692,21.596-21.606v-79.998C474.382,367.306,465.515,358.428,454.596,358.428z M459.302,458.212
	c0,3.599-2.916,6.525-6.515,6.525h-14.136c-3.589,0-6.515-2.926-6.515-6.525v-79.998c0-2.594,2.111-4.705,4.705-4.705h17.755
	c2.594,0,4.705,2.111,4.705,4.705L459.302,458.212L459.302,458.212z"/>
<path d="M194.647,219.028L194.647,219.028c-9.194-3.378-15.836-5.818-15.836-14.336c0-7.763,5.156-11.699,15.323-11.699
	c10.793,0,13.699,4.751,17.501,4.751c4.138,0,6.427-4.392,6.427-7.428c0-6.282-10.247-9.397-19.407-10.219v-5.664
	c0-3.94-3.205-7.145-7.145-7.145s-7.145,3.205-7.145,7.145V181c-12.525,2.974-19.407,11.625-19.407,24.443
	c0,17.55,12.92,22.405,23.304,26.308c10.166,3.82,18.197,6.838,18.197,18.445c0,9.587-5.323,14.448-15.824,14.448
	c-15.368,0-15.512-10.376-21.374-10.376c-3.63,0-6.554,4.064-6.554,7.428c0,5.942,8.849,13.752,21.658,15.779v5.473
	c0,3.94,3.205,7.145,7.145,7.145s7.145-3.205,7.145-7.145v-5.62c13.778-2.593,21.658-12.71,21.658-27.883
	C220.312,228.458,206.082,223.23,194.647,219.028z"/>
<path d="M390.051,422.491h-25.768c-4.695,0-8.918,2.061-11.813,5.318c-5.459,6.153-3.609,12.839-3.971,16.086v20.138
	c0,8.707,7.078,15.784,15.784,15.784h25.768c8.697,0,15.774-7.078,15.774-15.784v-25.768c0-4.454-1.86-8.485-4.836-11.351
	C398.154,424.18,394.294,422.491,390.051,422.491z M390.051,464.737c-25.456-0.312-26.472,0.653-26.472-0.704v-25.768
	c0-0.382,0.322-0.694,0.704-0.694h25.768c0.382,0,0.694,0.312,0.694,0.694C390.443,463.782,391.388,464.737,390.051,464.737z"/>
<path d="M390.051,291.068h-25.768c-8.707,0-15.784,7.078-15.784,15.784v25.758c0,8.707,7.078,15.784,15.784,15.784h25.768
	c2.031,0,3.961-0.382,5.741-1.086c5.871-2.302,10.034-8.023,10.034-14.699v-25.758C405.825,298.115,398.707,291.068,390.051,291.068
	z M390.745,332.61c0,0.392-0.312,0.704-0.694,0.704h-25.768c-0.382,0-0.704-0.312-0.704-0.704v-25.758
	c0-1.357,0.935-0.402,26.472-0.704c0.382,0,0.694,0.312,0.694,0.704L390.745,332.61L390.745,332.61z"/>
<path d="M395.792,359.514c-1.78-0.704-3.71-1.086-5.741-1.086h-25.768c-8.707,0-15.784,7.078-15.784,15.784v25.758
	c0,8.707,7.078,15.784,15.784,15.784h25.768c8.697,0,15.774-7.078,15.774-15.784v-25.758
	C405.825,367.537,401.663,361.816,395.792,359.514z M390.745,399.97c0,0.392-0.312,0.704-0.694,0.704h-25.768
	c-0.382,0-0.704-0.312-0.704-0.704v-25.758c0-0.392,0.322-0.704,0.704-0.704h25.768c0.382,0,0.694,0.312,0.694,0.704V399.97z"/>
<path d="M327.587,118.122h18.941c4.162,0,7.54-3.368,7.54-7.54c0-4.162-3.378-7.54-7.54-7.54h-18.941c-4.162,0-7.54,3.378-7.54,7.54
	C320.046,114.754,323.424,118.122,327.587,118.122z"/>
<path d="M163.71,118.122h133.716c4.162,0,7.54-3.368,7.54-7.54c0-4.162-3.378-7.54-7.54-7.54H163.71c-4.162,0-7.54,3.378-7.54,7.54
	C156.169,114.754,159.548,118.122,163.71,118.122z"/>
<path d="M187.678,155.552c4.162,0,7.54-3.378,7.54-7.54s-3.378-7.54-7.54-7.54H163.71c-4.162,0-7.54,3.378-7.54,7.54
	s3.378,7.54,7.54,7.54H187.678z"/>
<path d="M354.069,148.012c0-4.162-3.378-7.54-7.54-7.54H217.839c-4.162,0-7.54,3.378-7.54,7.54s3.378,7.54,7.54,7.54h128.689
	C350.69,155.552,354.069,152.174,354.069,148.012z"/>
<path d="M93.742,424.154c0-1.895,0.698-2.439,1.351-2.801c2.026-1.121,6.674-1.451,10.931,0.739c1.131,0.581,2.413,1.24,4.081,1.24
	c7.437,0,13.319-13.819-4.446-16.874v-0.475c0-4.213-3.428-7.641-7.641-7.641c-4.213,0-7.641,3.428-7.641,7.641v1.45
	c-7.444,2.7-11.655,8.839-11.655,17.172c0,12.86,9.343,16.371,16.167,18.934c6.507,2.445,8.757,3.515,8.757,7.941
	c0,2.767-0.745,5.328-6.154,5.328c-7.882,0-6.938-6.23-12.837-6.23c-4.169,0-7.286,4.123-7.286,7.81
	c0,5.224,5.432,10.182,13.008,12.192v0.572c0,4.213,3.428,7.641,7.641,7.641c4.213,0,7.641-3.427,7.641-7.641v-0.772
	c8.198-2.635,13.007-9.694,13.007-19.35C118.668,428.117,93.742,431.557,93.742,424.154z"/>
<g>
</g>
<g>
</g>
<g>
</g>
<g>
</g>
<g>
</g>
<g>
</g>
<g>
</g>
<g>
</g>
<g>
</g>
<g>
</g>
<g>
</g>
<g>
</g>
<g>
</g>
<g>
</g>
<g>
</g>
</svg>
