<svg id="Flat" height="512" viewBox="0 0 512 512" width="512" xmlns="http://www.w3.org/2000/svg"><g fill="#2d85cc"><path d="m24 168h48v304h-48z" transform="matrix(-1 0 0 -1 96 640)"/><path d="m104 232h48v240h-48z" transform="matrix(-1 0 0 -1 256 704)"/><path d="m184 288h48v184h-48z" transform="matrix(-1 0 0 -1 416 760)"/><path d="m264 352h48v120h-48z" transform="matrix(-1 0 0 -1 576 824)"/><path d="m344 384h48v88h-48z" transform="matrix(-1 0 0 -1 736 856)"/><path d="m424 424h48v48h-48z" transform="matrix(-1 0 0 -1 896 896)"/><path d="m360 184h32v-144h64v144h32l-64 64z"/></g><path d="m488 392a7.974 7.974 0 0 1 -5.471-2.164l-125.693-117.836h-68.836a8 8 0 0 1 -5.657-2.343l-117.656-117.657h-60.687a8 8 0 0 1 -5.657-2.343l-80-80a8 8 0 0 1 11.314-11.314l77.656 77.657h60.687a8 8 0 0 1 5.657 2.343l117.656 117.657h68.687a8 8 0 0 1 5.472 2.164l128 120a8 8 0 0 1 -5.472 13.836z" fill="#eb423f"/></svg>